solid csg.js
facet normal 0 -1 0
outer loop
vertex 2.5000000000000004 -0.5 -0.0625
vertex 2.5 -0.5 0.0625
vertex 1.9113248654051873 -0.5 0.0625
endloop
endfacet
facet normal 0 -1 0
outer loop
vertex 2.5000000000000004 -0.5 -0.0625
vertex 1.9113248654051873 -0.5 0.0625
vertex 1.9113248654051873 -0.5 -0.0625
endloop
endfacet
facet normal 0 -1 0
outer loop
vertex 3.3888888888888897 -0.5 -0.0625
vertex 3.3888888888888893 -0.5 0.0625
vertex 2.944444444444444 -0.5 0.0625
endloop
endfacet
facet normal 0 -1 0
outer loop
vertex 3.3888888888888897 -0.5 -0.0625
vertex 2.944444444444444 -0.5 0.0625
vertex 2.9444444444444446 -0.5 -0.0625
endloop
endfacet
facet normal 0 -1 0
outer loop
vertex 4.277777777777779 -0.5 -0.0625
vertex 4.277777777777778 -0.5 0.0625
vertex 3.8333333333333335 -0.5 0.0625
endloop
endfacet
facet normal 0 -1 0
outer loop
vertex 4.277777777777779 -0.5 -0.0625
vertex 3.8333333333333335 -0.5 0.0625
vertex 3.8333333333333335 -0.5 -0.0625
endloop
endfacet
facet normal 0 -1 0
outer loop
vertex 5.611111111111111 -0.5 -0.0625
vertex 5.611111111111111 -0.5 0.0625
vertex 4.722222222222221 -0.5 0.0625
endloop
endfacet
facet normal 0 -1 0
outer loop
vertex 5.611111111111111 -0.5 -0.0625
vertex 4.722222222222221 -0.5 0.0625
vertex 4.722222222222221 -0.5 -0.0625
endloop
endfacet
facet normal 0 1 0
outer loop
vertex 6.5 0.5 0.0625
vertex 6.5 0.5 -0.0625
vertex 1.9113248654051873 0.5 -0.0625
endloop
endfacet
facet normal 0 1 0
outer loop
vertex 6.5 0.5 0.0625
vertex 1.9113248654051873 0.5 -0.0625
vertex 1.9113248654051875 0.5 0.0625
endloop
endfacet
facet normal 0 0 -1
outer loop
vertex 6.5 0.5 -0.0625
vertex 6.700000000000001 0.3 -0.0625
vertex 2.0267949192431125 0.3 -0.0625
endloop
endfacet
facet normal 0 0 -1
outer loop
vertex 6.5 0.5 -0.0625
vertex 2.0267949192431125 0.3 -0.0625
vertex 1.9113248654051873 0.5 -0.0625
endloop
endfacet
facet normal 0 0 -1
outer loop
vertex 2.5 0.3 -0.0625
vertex 2.5 0.2 -0.0625
vertex 2.084529946162075 0.2 -0.0625
endloop
endfacet
facet normal 0 0 -1
outer loop
vertex 2.5 0.3 -0.0625
vertex 2.084529946162075 0.2 -0.0625
vertex 2.0267949192431125 0.3 -0.0625
endloop
endfacet
facet normal 0 0 -1
outer loop
vertex 1.5500000000000003 0.7794228634059946 -0.0625
vertex 1.9133974596215564 0.15000000000000002 -0.0625
vertex 0.2866025403784437 0.15000000000000002 -0.0625
endloop
endfacet
facet normal 0 0 -1
outer loop
vertex 1.5500000000000003 0.7794228634059946 -0.0625
vertex 0.2866025403784437 0.15000000000000002 -0.0625
vertex 0.6499999999999997 0.7794228634059946 -0.0625
endloop
endfacet
facet normal 0 0 -1
outer loop
vertex 0.6 0.15000000000000002 -0.0625
vertex 0.570736451697581 0.1471177920604846 -0.0625
vertex 0.284938496848704 0.1471177920604846 -0.0625
endloop
endfacet
facet normal 0 0 -1
outer loop
vertex 0.6 0.15000000000000002 -0.0625
vertex 0.284938496848704 0.1471177920604846 -0.0625
vertex 0.2866025403784437 0.15000000000000002 -0.0625
endloop
endfacet
facet normal 0 0 -1
outer loop
vertex 1.9133974596215564 0.15000000000000002 -0.0625
vertex 1.915061503151296 0.1471177920604846 -0.0625
vertex 0.6292635483024193 0.1471177920604846 -0.0625
endloop
endfacet
facet normal 0 0 -1
outer loop
vertex 1.9133974596215564 0.15000000000000002 -0.0625
vertex 0.6292635483024193 0.1471177920604846 -0.0625
vertex 0.6 0.15000000000000002 -0.0625
endloop
endfacet
facet normal 0 0 -1
outer loop
vertex 0.570736451697581 0.1471177920604846 -0.0625
vertex 0.5425974851452365 0.13858192987669293 -0.0625
vertex 0.2800103145191263 0.13858192987669293 -0.0625
endloop
endfacet
facet normal 0 0 -1
outer loop
vertex 0.570736451697581 0.1471177920604846 -0.0625
vertex 0.2800103145191263 0.13858192987669293 -0.0625
vertex 0.284938496848704 0.1471177920604846 -0.0625
endloop
endfacet
facet normal 0 0 -1
outer loop
vertex 1.915061503151296 0.1471177920604846 -0.0625
vertex 1.9199896854808738 0.13858192987669293 -0.0625
vertex 0.6574025148547638 0.13858192987669293 -0.0625
endloop
endfacet
facet normal 0 0 -1
outer loop
vertex 1.915061503151296 0.1471177920604846 -0.0625
vertex 0.6574025148547638 0.13858192987669293 -0.0625
vertex 0.6292635483024193 0.1471177920604846 -0.0625
endloop
endfacet
facet normal 0 0 -1
outer loop
vertex 0.5425974851452365 0.13858192987669293 -0.0625
vertex 0.5166644650470595 0.12472044184538161 -0.0625
vertex 0.2720073806728799 0.12472044184538161 -0.0625
endloop
endfacet
facet normal 0 0 -1
outer loop
vertex 0.5425974851452365 0.13858192987669293 -0.0625
vertex 0.2720073806728799 0.12472044184538161 -0.0625
vertex 0.2800103145191263 0.13858192987669293 -0.0625
endloop
endfacet
facet normal 0 0 -1
outer loop
vertex 1.9199896854808738 0.13858192987669293 -0.0625
vertex 1.92799261932712 0.12472044184538161 -0.0625
vertex 0.6833355349529405 0.12472044184538161 -0.0625
endloop
endfacet
facet normal 0 0 -1
outer loop
vertex 1.9199896854808738 0.13858192987669293 -0.0625
vertex 0.6833355349529405 0.12472044184538161 -0.0625
vertex 0.6574025148547638 0.13858192987669293 -0.0625
endloop
endfacet
facet normal 0 0 -1
outer loop
vertex 0.5166644650470595 0.12472044184538161 -0.0625
vertex 0.4939339828220175 0.10606601717798175 -0.0625
vertex 0.261237243569579 0.10606601717798175 -0.0625
endloop
endfacet
facet normal 0 0 -1
outer loop
vertex 0.5166644650470595 0.12472044184538161 -0.0625
vertex 0.261237243569579 0.10606601717798175 -0.0625
vertex 0.2720073806728799 0.12472044184538161 -0.0625
endloop
endfacet
facet normal 0 0 -1
outer loop
vertex 1.92799261932712 0.12472044184538161 -0.0625
vertex 1.938762756430421 0.10606601717798175 -0.0625
vertex 0.7060660171779827 0.10606601717798175 -0.0625
endloop
endfacet
facet normal 0 0 -1
outer loop
vertex 1.92799261932712 0.12472044184538161 -0.0625
vertex 0.7060660171779827 0.10606601717798175 -0.0625
vertex 0.6833355349529405 0.12472044184538161 -0.0625
endloop
endfacet
facet normal 0 0 -1
outer loop
vertex 0.4939339828220175 0.10606601717798175 -0.0625
vertex 0.4752795581546184 0.08333553495294066 -0.0625
vertex 0.24811379353814156 0.08333553495294066 -0.0625
endloop
endfacet
facet normal 0 0 -1
outer loop
vertex 0.4939339828220175 0.10606601717798175 -0.0625
vertex 0.24811379353814156 0.08333553495294066 -0.0625
vertex 0.261237243569579 0.10606601717798175 -0.0625
endloop
endfacet
facet normal 0 0 -1
outer loop
vertex 1.938762756430421 0.10606601717798175 -0.0625
vertex 1.9518862064618585 0.08333553495294066 -0.0625
vertex 0.7247204418453813 0.08333553495294066 -0.0625
endloop
endfacet
facet normal 0 0 -1
outer loop
vertex 1.938762756430421 0.10606601717798175 -0.0625
vertex 0.7247204418453813 0.08333553495294066 -0.0625
vertex 0.7060660171779827 0.10606601717798175 -0.0625
endloop
endfacet
facet normal 0 0 -1
outer loop
vertex 0.4752795581546184 0.08333553495294066 -0.0625
vertex 0.4614180701233067 0.05740251485476283 -0.0625
vertex 0.23314135740355857 0.05740251485476283 -0.0625
endloop
endfacet
facet normal 0 0 -1
outer loop
vertex 0.4752795581546184 0.08333553495294066 -0.0625
vertex 0.23314135740355857 0.05740251485476283 -0.0625
vertex 0.24811379353814156 0.08333553495294066 -0.0625
endloop
endfacet
facet normal 0 0 -1
outer loop
vertex 1.9518862064618585 0.08333553495294066 -0.0625
vertex 1.9668586425964414 0.05740251485476283 -0.0625
vertex 0.7385819298766935 0.05740251485476283 -0.0625
endloop
endfacet
facet normal 0 0 -1
outer loop
vertex 1.9518862064618585 0.08333553495294066 -0.0625
vertex 0.7385819298766935 0.05740251485476283 -0.0625
vertex 0.7247204418453813 0.08333553495294066 -0.0625
endloop
endfacet
facet normal 0 0 -1
outer loop
vertex 0.4614180701233067 0.05740251485476283 -0.0625
vertex 0.4528822079395156 0.02926354830242006 -0.0625
vertex 0.21689531748984558 0.02926354830242006 -0.0625
endloop
endfacet
facet normal 0 0 -1
outer loop
vertex 0.4614180701233067 0.05740251485476283 -0.0625
vertex 0.21689531748984558 0.02926354830242006 -0.0625
vertex 0.23314135740355857 0.05740251485476283 -0.0625
endloop
endfacet
facet normal 0 0 -1
outer loop
vertex 1.9668586425964414 0.05740251485476283 -0.0625
vertex 1.9831046825101544 0.02926354830242006 -0.0625
vertex 0.7471177920604843 0.02926354830242006 -0.0625
endloop
endfacet
facet normal 0 0 -1
outer loop
vertex 1.9668586425964414 0.05740251485476283 -0.0625
vertex 0.7471177920604843 0.02926354830242006 -0.0625
vertex 0.7385819298766935 0.05740251485476283 -0.0625
endloop
endfacet
facet normal 0 0 -1
outer loop
vertex 0.4528822079395156 0.02926354830242006 -0.0625
vertex 0.45000000000000007 1.942890293094024e-16 -0.0625
vertex 0.19999999999999996 1.942890293094024e-16 -0.0625
endloop
endfacet
facet normal 0 0 -1
outer loop
vertex 0.4528822079395156 0.02926354830242006 -0.0625
vertex 0.19999999999999996 1.942890293094024e-16 -0.0625
vertex 0.21689531748984558 0.02926354830242006 -0.0625
endloop
endfacet
facet normal 0 0 -1
outer loop
vertex 1.9831046825101544 0.02926354830242006 -0.0625
vertex 2 1.942890293094024e-16 -0.0625
vertex 0.75 1.942890293094024e-16 -0.0625
endloop
endfacet
facet normal 0 0 -1
outer loop
vertex 1.9831046825101544 0.02926354830242006 -0.0625
vertex 0.75 1.942890293094024e-16 -0.0625
vertex 0.7471177920604843 0.02926354830242006 -0.0625
endloop
endfacet
facet normal 0 0 -1
outer loop
vertex 6.800000000000001 0.2 -0.0625
vertex 7 1.942890293094024e-16 -0.0625
vertex 2.2 1.942890293094024e-16 -0.0625
endloop
endfacet
facet normal 0 0 -1
outer loop
vertex 6.800000000000001 0.2 -0.0625
vertex 2.2 1.942890293094024e-16 -0.0625
vertex 2.084529946162075 0.2 -0.0625
endloop
endfacet
facet normal 0 0 -1
outer loop
vertex 0.45000000000000007 1.942890293094024e-16 -0.0625
vertex 0.4528822079395155 -0.029263548302419562 -0.0625
vertex 0.2168953174898457 -0.029263548302419562 -0.0625
endloop
endfacet
facet normal 0 0 -1
outer loop
vertex 0.45000000000000007 1.942890293094024e-16 -0.0625
vertex 0.2168953174898457 -0.029263548302419562 -0.0625
vertex 0.19999999999999996 1.942890293094024e-16 -0.0625
endloop
endfacet
facet normal 0 0 -1
outer loop
vertex 2 1.942890293094024e-16 -0.0625
vertex 1.9831046825101546 -0.029263548302419562 -0.0625
vertex 0.7471177920604846 -0.029263548302419562 -0.0625
endloop
endfacet
facet normal 0 0 -1
outer loop
vertex 2 1.942890293094024e-16 -0.0625
vertex 0.7471177920604846 -0.029263548302419562 -0.0625
vertex 0.75 1.942890293094024e-16 -0.0625
endloop
endfacet
facet normal 0 0 -1
outer loop
vertex 0.4528822079395155 -0.029263548302419562 -0.0625
vertex 0.4614180701233067 -0.05740251485476361 -0.0625
vertex 0.23314135740355935 -0.05740251485476361 -0.0625
endloop
endfacet
facet normal 0 0 -1
outer loop
vertex 0.4528822079395155 -0.029263548302419562 -0.0625
vertex 0.23314135740355935 -0.05740251485476361 -0.0625
vertex 0.2168953174898457 -0.029263548302419562 -0.0625
endloop
endfacet
facet normal 0 0 -1
outer loop
vertex 1.9831046825101546 -0.029263548302419562 -0.0625
vertex 1.9668586425964407 -0.05740251485476361 -0.0625
vertex 0.7385819298766931 -0.05740251485476361 -0.0625
endloop
endfacet
facet normal 0 0 -1
outer loop
vertex 1.9831046825101546 -0.029263548302419562 -0.0625
vertex 0.7385819298766931 -0.05740251485476361 -0.0625
vertex 0.7471177920604846 -0.029263548302419562 -0.0625
endloop
endfacet
facet normal 0 0 -1
outer loop
vertex 0.4614180701233067 -0.05740251485476361 -0.0625
vertex 0.4752795581546183 -0.08333553495294027 -0.0625
vertex 0.24811379353814167 -0.08333553495294027 -0.0625
endloop
endfacet
facet normal 0 0 -1
outer loop
vertex 0.4614180701233067 -0.05740251485476361 -0.0625
vertex 0.24811379353814167 -0.08333553495294027 -0.0625
vertex 0.23314135740355935 -0.05740251485476361 -0.0625
endloop
endfacet
facet normal 0 0 -1
outer loop
vertex 1.9668586425964407 -0.05740251485476361 -0.0625
vertex 1.9518862064618585 -0.08333553495294027 -0.0625
vertex 0.7247204418453819 -0.08333553495294027 -0.0625
endloop
endfacet
facet normal 0 0 -1
outer loop
vertex 1.9668586425964407 -0.05740251485476361 -0.0625
vertex 0.7247204418453819 -0.08333553495294027 -0.0625
vertex 0.7385819298766931 -0.05740251485476361 -0.0625
endloop
endfacet
facet normal 0 0 -1
outer loop
vertex 0.4752795581546183 -0.08333553495294027 -0.0625
vertex 0.49393398282201806 -0.10606601717798214 -0.0625
vertex 0.26123724356957956 -0.10606601717798214 -0.0625
endloop
endfacet
facet normal 0 0 -1
outer loop
vertex 0.4752795581546183 -0.08333553495294027 -0.0625
vertex 0.26123724356957956 -0.10606601717798214 -0.0625
vertex 0.24811379353814167 -0.08333553495294027 -0.0625
endloop
endfacet
facet normal 0 0 -1
outer loop
vertex 1.9518862064618585 -0.08333553495294027 -0.0625
vertex 1.9387627564304206 -0.10606601717798214 -0.0625
vertex 0.7060660171779822 -0.10606601717798214 -0.0625
endloop
endfacet
facet normal 0 0 -1
outer loop
vertex 1.9518862064618585 -0.08333553495294027 -0.0625
vertex 0.7060660171779822 -0.10606601717798214 -0.0625
vertex 0.7247204418453819 -0.08333553495294027 -0.0625
endloop
endfacet
facet normal 0 0 -1
outer loop
vertex 0.49393398282201806 -0.10606601717798214 -0.0625
vertex 0.5166644650470597 -0.1247204418453817 -0.0625
vertex 0.2720073806728802 -0.1247204418453817 -0.0625
endloop
endfacet
facet normal 0 0 -1
outer loop
vertex 0.49393398282201806 -0.10606601717798214 -0.0625
vertex 0.2720073806728802 -0.1247204418453817 -0.0625
vertex 0.26123724356957956 -0.10606601717798214 -0.0625
endloop
endfacet
facet normal 0 0 -1
outer loop
vertex 1.9387627564304206 -0.10606601717798214 -0.0625
vertex 1.92799261932712 -0.1247204418453817 -0.0625
vertex 0.6833355349529406 -0.1247204418453817 -0.0625
endloop
endfacet
facet normal 0 0 -1
outer loop
vertex 1.9387627564304206 -0.10606601717798214 -0.0625
vertex 0.6833355349529406 -0.1247204418453817 -0.0625
vertex 0.7060660171779822 -0.10606601717798214 -0.0625
endloop
endfacet
facet normal 0 0 -1
outer loop
vertex 0.5166644650470597 -0.1247204418453817 -0.0625
vertex 0.5425974851452366 -0.13858192987669302 -0.0625
vertex 0.2800103145191266 -0.13858192987669302 -0.0625
endloop
endfacet
facet normal 0 0 -1
outer loop
vertex 0.5166644650470597 -0.1247204418453817 -0.0625
vertex 0.2800103145191266 -0.13858192987669302 -0.0625
vertex 0.2720073806728802 -0.1247204418453817 -0.0625
endloop
endfacet
facet normal 0 0 -1
outer loop
vertex 1.92799261932712 -0.1247204418453817 -0.0625
vertex 1.9199896854808736 -0.13858192987669302 -0.0625
vertex 0.6574025148547635 -0.13858192987669302 -0.0625
endloop
endfacet
facet normal 0 0 -1
outer loop
vertex 1.92799261932712 -0.1247204418453817 -0.0625
vertex 0.6574025148547635 -0.13858192987669302 -0.0625
vertex 0.6833355349529406 -0.1247204418453817 -0.0625
endloop
endfacet
facet normal 0 0 -1
outer loop
vertex 0.5425974851452366 -0.13858192987669302 -0.0625
vertex 0.5707364516975809 -0.1471177920604846 -0.0625
vertex 0.2849384968487042 -0.1471177920604846 -0.0625
endloop
endfacet
facet normal 0 0 -1
outer loop
vertex 0.5425974851452366 -0.13858192987669302 -0.0625
vertex 0.2849384968487042 -0.1471177920604846 -0.0625
vertex 0.2800103145191266 -0.13858192987669302 -0.0625
endloop
endfacet
facet normal 0 0 -1
outer loop
vertex 1.9199896854808736 -0.13858192987669302 -0.0625
vertex 1.9150615031512959 -0.1471177920604846 -0.0625
vertex 0.6292635483024193 -0.1471177920604846 -0.0625
endloop
endfacet
facet normal 0 0 -1
outer loop
vertex 1.9199896854808736 -0.13858192987669302 -0.0625
vertex 0.6292635483024193 -0.1471177920604846 -0.0625
vertex 0.6574025148547635 -0.13858192987669302 -0.0625
endloop
endfacet
facet normal 0 0 -1
outer loop
vertex 0.5707364516975809 -0.1471177920604846 -0.0625
vertex 0.6000000000000002 -0.15 -0.0625
vertex 0.2866025403784439 -0.15 -0.0625
endloop
endfacet
facet normal 0 0 -1
outer loop
vertex 0.5707364516975809 -0.1471177920604846 -0.0625
vertex 0.2866025403784439 -0.15 -0.0625
vertex 0.2849384968487042 -0.1471177920604846 -0.0625
endloop
endfacet
facet normal 0 0 -1
outer loop
vertex 1.9150615031512959 -0.1471177920604846 -0.0625
vertex 1.9133974596215562 -0.15 -0.0625
vertex 0.6000000000000002 -0.15 -0.0625
endloop
endfacet
facet normal 0 0 -1
outer loop
vertex 1.9150615031512959 -0.1471177920604846 -0.0625
vertex 0.6000000000000002 -0.15 -0.0625
vertex 0.6292635483024193 -0.1471177920604846 -0.0625
endloop
endfacet
facet normal 0 0 -1
outer loop
vertex 7 1.942890293094024e-16 -0.0625
vertex 6.722222222222223 -0.27777777777777785 -0.0625
vertex 2.039624925225104 -0.27777777777777785 -0.0625
endloop
endfacet
facet normal 0 0 -1
outer loop
vertex 7 1.942890293094024e-16 -0.0625
vertex 2.039624925225104 -0.27777777777777785 -0.0625
vertex 2.2 1.942890293094024e-16 -0.0625
endloop
endfacet
facet normal 0 0 -1
outer loop
vertex 2.7222222222222223 -0.27777777777777785 -0.0625
vertex 2.5000000000000004 -0.5 -0.0625
vertex 1.9113248654051873 -0.5 -0.0625
endloop
endfacet
facet normal 0 0 -1
outer loop
vertex 2.7222222222222223 -0.27777777777777785 -0.0625
vertex 1.9113248654051873 -0.5 -0.0625
vertex 2.039624925225104 -0.27777777777777785 -0.0625
endloop
endfacet
facet normal 0 0 -1
outer loop
vertex 3.6111111111111107 -0.27777777777777785 -0.0625
vertex 3.3888888888888897 -0.5 -0.0625
vertex 2.9444444444444446 -0.5 -0.0625
endloop
endfacet
facet normal 0 0 -1
outer loop
vertex 3.6111111111111107 -0.27777777777777785 -0.0625
vertex 2.9444444444444446 -0.5 -0.0625
vertex 2.7222222222222223 -0.27777777777777785 -0.0625
endloop
endfacet
facet normal 0 0 -1
outer loop
vertex 4.5 -0.27777777777777785 -0.0625
vertex 4.277777777777779 -0.5 -0.0625
vertex 3.8333333333333335 -0.5 -0.0625
endloop
endfacet
facet normal 0 0 -1
outer loop
vertex 4.5 -0.27777777777777785 -0.0625
vertex 3.8333333333333335 -0.5 -0.0625
vertex 3.6111111111111107 -0.27777777777777785 -0.0625
endloop
endfacet
facet normal 0 0 -1
outer loop
vertex 5.833333333333334 -0.27777777777777785 -0.0625
vertex 5.611111111111111 -0.5 -0.0625
vertex 4.722222222222221 -0.5 -0.0625
endloop
endfacet
facet normal 0 0 -1
outer loop
vertex 5.833333333333334 -0.27777777777777785 -0.0625
vertex 4.722222222222221 -0.5 -0.0625
vertex 4.5 -0.27777777777777785 -0.0625
endloop
endfacet
facet normal 0 0 -1
outer loop
vertex 6.277777777777779 -0.27777777777777785 -0.0625
vertex 6.055555555555555 -0.5 -0.0625
vertex 5.833333333333334 -0.27777777777777785 -0.0625
endloop
endfacet
facet normal 0 0 -1
outer loop
vertex 6.722222222222223 -0.27777777777777785 -0.0625
vertex 6.5 -0.5 -0.0625
vertex 6.277777777777779 -0.27777777777777785 -0.0625
endloop
endfacet
facet normal 0 0 -1
outer loop
vertex 1.9133974596215562 -0.15 -0.0625
vertex 1.5500000000000003 -0.7794228634059949 -0.0625
vertex 0.6500000000000004 -0.7794228634059949 -0.0625
endloop
endfacet
facet normal 0 0 -1
outer loop
vertex 1.9133974596215562 -0.15 -0.0625
vertex 0.6500000000000004 -0.7794228634059949 -0.0625
vertex 0.2866025403784439 -0.15 -0.0625
endloop
endfacet
facet normal 0 0 1
outer loop
vertex 2.5 -0.5 0.0625
vertex 2.7222222222222223 -0.2777777777777777 0.0625
vertex 2.0396249252251044 -0.2777777777777777 0.0625
endloop
endfacet
facet normal 0 0 1
outer loop
vertex 2.5 -0.5 0.0625
vertex 2.0396249252251044 -0.2777777777777777 0.0625
vertex 1.9113248654051873 -0.5 0.0625
endloop
endfacet
facet normal 0 0 1
outer loop
vertex 3.3888888888888893 -0.5 0.0625
vertex 3.611111111111111 -0.2777777777777777 0.0625
vertex 2.7222222222222223 -0.2777777777777777 0.0625
endloop
endfacet
facet normal 0 0 1
outer loop
vertex 3.3888888888888893 -0.5 0.0625
vertex 2.7222222222222223 -0.2777777777777777 0.0625
vertex 2.944444444444444 -0.5 0.0625
endloop
endfacet
facet normal 0 0 1
outer loop
vertex 4.277777777777778 -0.5 0.0625
vertex 4.5 -0.2777777777777777 0.0625
vertex 3.611111111111111 -0.2777777777777777 0.0625
endloop
endfacet
facet normal 0 0 1
outer loop
vertex 4.277777777777778 -0.5 0.0625
vertex 3.611111111111111 -0.2777777777777777 0.0625
vertex 3.8333333333333335 -0.5 0.0625
endloop
endfacet
facet normal 0 0 1
outer loop
vertex 5.611111111111111 -0.5 0.0625
vertex 5.833333333333334 -0.2777777777777777 0.0625
vertex 4.5 -0.2777777777777777 0.0625
endloop
endfacet
facet normal 0 0 1
outer loop
vertex 5.611111111111111 -0.5 0.0625
vertex 4.5 -0.2777777777777777 0.0625
vertex 4.722222222222221 -0.5 0.0625
endloop
endfacet
facet normal 0 0 1
outer loop
vertex 6.277777777777777 -0.2777777777777777 0.0625
vertex 5.833333333333334 -0.2777777777777777 0.0625
vertex 6.055555555555557 -0.5 0.0625
endloop
endfacet
facet normal 0 0 1
outer loop
vertex 6.722222222222223 -0.2777777777777777 0.0625
vertex 6.277777777777777 -0.2777777777777777 0.0625
vertex 6.5 -0.5 0.0625
endloop
endfacet
facet normal 0 0 1
outer loop
vertex 1.5500000000000003 -0.7794228634059949 0.0625
vertex 1.9133974596215562 -0.15000000000000002 0.0625
vertex 0.2866025403784439 -0.15000000000000002 0.0625
endloop
endfacet
facet normal 0 0 1
outer loop
vertex 1.5500000000000003 -0.7794228634059949 0.0625
vertex 0.2866025403784439 -0.15000000000000002 0.0625
vertex 0.6500000000000004 -0.7794228634059949 0.0625
endloop
endfacet
facet normal 0 0 1
outer loop
vertex 0.6000000000000002 -0.15000000000000002 0.0625
vertex 0.5707364516975812 -0.14711779206048461 0.0625
vertex 0.2849384968487042 -0.14711779206048461 0.0625
endloop
endfacet
facet normal 0 0 1
outer loop
vertex 0.6000000000000002 -0.15000000000000002 0.0625
vertex 0.2849384968487042 -0.14711779206048461 0.0625
vertex 0.2866025403784439 -0.15000000000000002 0.0625
endloop
endfacet
facet normal 0 0 1
outer loop
vertex 1.9133974596215562 -0.15000000000000002 0.0625
vertex 1.9150615031512959 -0.14711779206048461 0.0625
vertex 0.6292635483024192 -0.14711779206048461 0.0625
endloop
endfacet
facet normal 0 0 1
outer loop
vertex 1.9133974596215562 -0.15000000000000002 0.0625
vertex 0.6292635483024192 -0.14711779206048461 0.0625
vertex 0.6000000000000002 -0.15000000000000002 0.0625
endloop
endfacet
facet normal 0 0 1
outer loop
vertex 0.5707364516975812 -0.14711779206048461 0.0625
vertex 0.5425974851452368 -0.13858192987669302 0.0625
vertex 0.2800103145191266 -0.13858192987669302 0.0625
endloop
endfacet
facet normal 0 0 1
outer loop
vertex 0.5707364516975812 -0.14711779206048461 0.0625
vertex 0.2800103145191266 -0.13858192987669302 0.0625
vertex 0.2849384968487042 -0.14711779206048461 0.0625
endloop
endfacet
facet normal 0 0 1
outer loop
vertex 1.9150615031512959 -0.14711779206048461 0.0625
vertex 1.9199896854808736 -0.13858192987669302 0.0625
vertex 0.6574025148547635 -0.13858192987669302 0.0625
endloop
endfacet
facet normal 0 0 1
outer loop
vertex 1.9150615031512959 -0.14711779206048461 0.0625
vertex 0.6574025148547635 -0.13858192987669302 0.0625
vertex 0.6292635483024192 -0.14711779206048461 0.0625
endloop
endfacet
facet normal 0 0 1
outer loop
vertex 0.5425974851452368 -0.13858192987669302 0.0625
vertex 0.5166644650470601 -0.12472044184538177 0.0625
vertex 0.27200738067288033 -0.12472044184538177 0.0625
endloop
endfacet
facet normal 0 0 1
outer loop
vertex 0.5425974851452368 -0.13858192987669302 0.0625
vertex 0.27200738067288033 -0.12472044184538177 0.0625
vertex 0.2800103145191266 -0.13858192987669302 0.0625
endloop
endfacet
facet normal 0 0 1
outer loop
vertex 1.9199896854808736 -0.13858192987669302 0.0625
vertex 1.92799261932712 -0.12472044184538177 0.0625
vertex 0.6833355349529404 -0.12472044184538177 0.0625
endloop
endfacet
facet normal 0 0 1
outer loop
vertex 1.9199896854808736 -0.13858192987669302 0.0625
vertex 0.6833355349529404 -0.12472044184538177 0.0625
vertex 0.6574025148547635 -0.13858192987669302 0.0625
endloop
endfacet
facet normal 0 0 1
outer loop
vertex 0.5166644650470601 -0.12472044184538177 0.0625
vertex 0.49393398282201784 -0.10606601717798217 0.0625
vertex 0.26123724356957956 -0.10606601717798217 0.0625
endloop
endfacet
facet normal 0 0 1
outer loop
vertex 0.5166644650470601 -0.12472044184538177 0.0625
vertex 0.26123724356957956 -0.10606601717798217 0.0625
vertex 0.27200738067288033 -0.12472044184538177 0.0625
endloop
endfacet
facet normal 0 0 1
outer loop
vertex 1.92799261932712 -0.12472044184538177 0.0625
vertex 1.9387627564304206 -0.10606601717798217 0.0625
vertex 0.7060660171779822 -0.10606601717798217 0.0625
endloop
endfacet
facet normal 0 0 1
outer loop
vertex 1.92799261932712 -0.12472044184538177 0.0625
vertex 0.7060660171779822 -0.10606601717798217 0.0625
vertex 0.6833355349529404 -0.12472044184538177 0.0625
endloop
endfacet
facet normal 0 0 1
outer loop
vertex 0.49393398282201784 -0.10606601717798217 0.0625
vertex 0.47527955815461786 -0.08333553495293987 0.0625
vertex 0.24811379353814134 -0.08333553495293987 0.0625
endloop
endfacet
facet normal 0 0 1
outer loop
vertex 0.49393398282201784 -0.10606601717798217 0.0625
vertex 0.24811379353814134 -0.08333553495293987 0.0625
vertex 0.26123724356957956 -0.10606601717798217 0.0625
endloop
endfacet
facet normal 0 0 1
outer loop
vertex 1.9387627564304206 -0.10606601717798217 0.0625
vertex 1.9518862064618587 -0.08333553495293987 0.0625
vertex 0.7247204418453823 -0.08333553495293987 0.0625
endloop
endfacet
facet normal 0 0 1
outer loop
vertex 1.9387627564304206 -0.10606601717798217 0.0625
vertex 0.7247204418453823 -0.08333553495293987 0.0625
vertex 0.7060660171779822 -0.10606601717798217 0.0625
endloop
endfacet
facet normal 0 0 1
outer loop
vertex 0.47527955815461786 -0.08333553495293987 0.0625
vertex 0.4614180701233074 -0.057402514854763956 0.0625
vertex 0.23314135740355957 -0.057402514854763956 0.0625
endloop
endfacet
facet normal 0 0 1
outer loop
vertex 0.47527955815461786 -0.08333553495293987 0.0625
vertex 0.23314135740355957 -0.057402514854763956 0.0625
vertex 0.24811379353814134 -0.08333553495293987 0.0625
endloop
endfacet
facet normal 0 0 1
outer loop
vertex 1.9518862064618587 -0.08333553495293987 0.0625
vertex 1.9668586425964405 -0.057402514854763956 0.0625
vertex 0.7385819298766929 -0.057402514854763956 0.0625
endloop
endfacet
facet normal 0 0 1
outer loop
vertex 1.9518862064618587 -0.08333553495293987 0.0625
vertex 0.7385819298766929 -0.057402514854763956 0.0625
vertex 0.7247204418453823 -0.08333553495293987 0.0625
endloop
endfacet
facet normal 0 0 1
outer loop
vertex 0.4614180701233074 -0.057402514854763956 0.0625
vertex 0.45288220793951506 -0.029263548302419284 0.0625
vertex 0.21689531748984547 -0.029263548302419284 0.0625
endloop
endfacet
facet normal 0 0 1
outer loop
vertex 0.4614180701233074 -0.057402514854763956 0.0625
vertex 0.21689531748984547 -0.029263548302419284 0.0625
vertex 0.23314135740355957 -0.057402514854763956 0.0625
endloop
endfacet
facet normal 0 0 1
outer loop
vertex 1.9668586425964405 -0.057402514854763956 0.0625
vertex 1.9831046825101546 -0.029263548302419284 0.0625
vertex 0.7471177920604846 -0.029263548302419284 0.0625
endloop
endfacet
facet normal 0 0 1
outer loop
vertex 1.9668586425964405 -0.057402514854763956 0.0625
vertex 0.7471177920604846 -0.029263548302419284 0.0625
vertex 0.7385819298766929 -0.057402514854763956 0.0625
endloop
endfacet
facet normal 0 0 1
outer loop
vertex 0.45288220793951506 -0.029263548302419284 0.0625
vertex 0.4500000000000002 2.220446049250313e-16 0.0625
vertex 0.19999999999999996 2.220446049250313e-16 0.0625
endloop
endfacet
facet normal 0 0 1
outer loop
vertex 0.45288220793951506 -0.029263548302419284 0.0625
vertex 0.19999999999999996 2.220446049250313e-16 0.0625
vertex 0.21689531748984547 -0.029263548302419284 0.0625
endloop
endfacet
facet normal 0 0 1
outer loop
vertex 1.9831046825101546 -0.029263548302419284 0.0625
vertex 2 2.220446049250313e-16 0.0625
vertex 0.75 2.220446049250313e-16 0.0625
endloop
endfacet
facet normal 0 0 1
outer loop
vertex 1.9831046825101546 -0.029263548302419284 0.0625
vertex 0.75 2.220446049250313e-16 0.0625
vertex 0.7471177920604846 -0.029263548302419284 0.0625
endloop
endfacet
facet normal 0 0 1
outer loop
vertex 6.722222222222223 -0.2777777777777777 0.0625
vertex 7 2.220446049250313e-16 0.0625
vertex 2.2 2.220446049250313e-16 0.0625
endloop
endfacet
facet normal 0 0 1
outer loop
vertex 6.722222222222223 -0.2777777777777777 0.0625
vertex 2.2 2.220446049250313e-16 0.0625
vertex 2.0396249252251044 -0.2777777777777777 0.0625
endloop
endfacet
facet normal 0 0 1
outer loop
vertex 0.4500000000000002 2.220446049250313e-16 0.0625
vertex 0.4528822079395155 0.029263548302418996 0.0625
vertex 0.21689531748984503 0.029263548302418996 0.0625
endloop
endfacet
facet normal 0 0 1
outer loop
vertex 0.4500000000000002 2.220446049250313e-16 0.0625
vertex 0.21689531748984503 0.029263548302418996 0.0625
vertex 0.19999999999999996 2.220446049250313e-16 0.0625
endloop
endfacet
facet normal 0 0 1
outer loop
vertex 2 2.220446049250313e-16 0.0625
vertex 1.983104682510155 0.029263548302418996 0.0625
vertex 0.7471177920604846 0.029263548302418996 0.0625
endloop
endfacet
facet normal 0 0 1
outer loop
vertex 2 2.220446049250313e-16 0.0625
vertex 0.7471177920604846 0.029263548302418996 0.0625
vertex 0.75 2.220446049250313e-16 0.0625
endloop
endfacet
facet normal 0 0 1
outer loop
vertex 0.4528822079395155 0.029263548302418996 0.0625
vertex 0.46141807012330704 0.05740251485476347 0.0625
vertex 0.233141357403559 0.05740251485476347 0.0625
endloop
endfacet
facet normal 0 0 1
outer loop
vertex 0.4528822079395155 0.029263548302418996 0.0625
vertex 0.233141357403559 0.05740251485476347 0.0625
vertex 0.21689531748984503 0.029263548302418996 0.0625
endloop
endfacet
facet normal 0 0 1
outer loop
vertex 1.983104682510155 0.029263548302418996 0.0625
vertex 1.9668586425964412 0.05740251485476347 0.0625
vertex 0.7385819298766931 0.05740251485476347 0.0625
endloop
endfacet
facet normal 0 0 1
outer loop
vertex 1.983104682510155 0.029263548302418996 0.0625
vertex 0.7385819298766931 0.05740251485476347 0.0625
vertex 0.7471177920604846 0.029263548302418996 0.0625
endloop
endfacet
facet normal 0 0 1
outer loop
vertex 0.46141807012330704 0.05740251485476347 0.0625
vertex 0.4752795581546182 0.0833355349529402 0.0625
vertex 0.24811379353814134 0.0833355349529402 0.0625
endloop
endfacet
facet normal 0 0 1
outer loop
vertex 0.46141807012330704 0.05740251485476347 0.0625
vertex 0.24811379353814134 0.0833355349529402 0.0625
vertex 0.233141357403559 0.05740251485476347 0.0625
endloop
endfacet
facet normal 0 0 1
outer loop
vertex 1.9668586425964412 0.05740251485476347 0.0625
vertex 1.9518862064618587 0.0833355349529402 0.0625
vertex 0.7247204418453816 0.0833355349529402 0.0625
endloop
endfacet
facet normal 0 0 1
outer loop
vertex 1.9668586425964412 0.05740251485476347 0.0625
vertex 0.7247204418453816 0.0833355349529402 0.0625
vertex 0.7385819298766931 0.05740251485476347 0.0625
endloop
endfacet
facet normal 0 0 1
outer loop
vertex 0.4752795581546182 0.0833355349529402 0.0625
vertex 0.49393398282201795 0.10606601717798209 0.0625
vertex 0.2612372435695792 0.10606601717798209 0.0625
endloop
endfacet
facet normal 0 0 1
outer loop
vertex 0.4752795581546182 0.0833355349529402 0.0625
vertex 0.2612372435695792 0.10606601717798209 0.0625
vertex 0.24811379353814134 0.0833355349529402 0.0625
endloop
endfacet
facet normal 0 0 1
outer loop
vertex 1.9518862064618587 0.0833355349529402 0.0625
vertex 1.9387627564304208 0.10606601717798209 0.0625
vertex 0.706066017177982 0.10606601717798209 0.0625
endloop
endfacet
facet normal 0 0 1
outer loop
vertex 1.9518862064618587 0.0833355349529402 0.0625
vertex 0.706066017177982 0.10606601717798209 0.0625
vertex 0.7247204418453816 0.0833355349529402 0.0625
endloop
endfacet
facet normal 0 0 1
outer loop
vertex 0.49393398282201795 0.10606601717798209 0.0625
vertex 0.5166644650470594 0.1247204418453816 0.0625
vertex 0.2720073806728799 0.1247204418453816 0.0625
endloop
endfacet
facet normal 0 0 1
outer loop
vertex 0.49393398282201795 0.10606601717798209 0.0625
vertex 0.2720073806728799 0.1247204418453816 0.0625
vertex 0.2612372435695792 0.10606601717798209 0.0625
endloop
endfacet
facet normal 0 0 1
outer loop
vertex 1.9387627564304208 0.10606601717798209 0.0625
vertex 1.92799261932712 0.1247204418453816 0.0625
vertex 0.6833355349529406 0.1247204418453816 0.0625
endloop
endfacet
facet normal 0 0 1
outer loop
vertex 1.9387627564304208 0.10606601717798209 0.0625
vertex 0.6833355349529406 0.1247204418453816 0.0625
vertex 0.706066017177982 0.10606601717798209 0.0625
endloop
endfacet
facet normal 0 0 1
outer loop
vertex 0.5166644650470594 0.1247204418453816 0.0625
vertex 0.5425974851452363 0.13858192987669285 0.0625
vertex 0.2800103145191263 0.13858192987669285 0.0625
endloop
endfacet
facet normal 0 0 1
outer loop
vertex 0.5166644650470594 0.1247204418453816 0.0625
vertex 0.2800103145191263 0.13858192987669285 0.0625
vertex 0.2720073806728799 0.1247204418453816 0.0625
endloop
endfacet
facet normal 0 0 1
outer loop
vertex 1.92799261932712 0.1247204418453816 0.0625
vertex 1.9199896854808738 0.13858192987669285 0.0625
vertex 0.6574025148547633 0.13858192987669285 0.0625
endloop
endfacet
facet normal 0 0 1
outer loop
vertex 1.92799261932712 0.1247204418453816 0.0625
vertex 0.6574025148547633 0.13858192987669285 0.0625
vertex 0.6833355349529406 0.1247204418453816 0.0625
endloop
endfacet
facet normal 0 0 1
outer loop
vertex 0.5425974851452363 0.13858192987669285 0.0625
vertex 0.570736451697581 0.14711779206048456 0.0625
vertex 0.284938496848704 0.14711779206048456 0.0625
endloop
endfacet
facet normal 0 0 1
outer loop
vertex 0.5425974851452363 0.13858192987669285 0.0625
vertex 0.284938496848704 0.14711779206048456 0.0625
vertex 0.2800103145191263 0.13858192987669285 0.0625
endloop
endfacet
facet normal 0 0 1
outer loop
vertex 1.9199896854808738 0.13858192987669285 0.0625
vertex 1.915061503151296 0.14711779206048456 0.0625
vertex 0.6292635483024194 0.14711779206048456 0.0625
endloop
endfacet
facet normal 0 0 1
outer loop
vertex 1.9199896854808738 0.13858192987669285 0.0625
vertex 0.6292635483024194 0.14711779206048456 0.0625
vertex 0.6574025148547633 0.13858192987669285 0.0625
endloop
endfacet
facet normal 0 0 1
outer loop
vertex 0.570736451697581 0.14711779206048456 0.0625
vertex 0.6000000000000003 0.15000000000000002 0.0625
vertex 0.2866025403784437 0.15000000000000002 0.0625
endloop
endfacet
facet normal 0 0 1
outer loop
vertex 0.570736451697581 0.14711779206048456 0.0625
vertex 0.2866025403784437 0.15000000000000002 0.0625
vertex 0.284938496848704 0.14711779206048456 0.0625
endloop
endfacet
facet normal 0 0 1
outer loop
vertex 1.915061503151296 0.14711779206048456 0.0625
vertex 1.9133974596215564 0.15000000000000002 0.0625
vertex 0.6000000000000003 0.15000000000000002 0.0625
endloop
endfacet
facet normal 0 0 1
outer loop
vertex 1.915061503151296 0.14711779206048456 0.0625
vertex 0.6000000000000003 0.15000000000000002 0.0625
vertex 0.6292635483024194 0.14711779206048456 0.0625
endloop
endfacet
facet normal 0 0 1
outer loop
vertex 7 2.220446049250313e-16 0.0625
vertex 6.800000000000001 0.19999999999999996 0.0625
vertex 2.084529946162075 0.19999999999999996 0.0625
endloop
endfacet
facet normal 0 0 1
outer loop
vertex 7 2.220446049250313e-16 0.0625
vertex 2.084529946162075 0.19999999999999996 0.0625
vertex 2.2 2.220446049250313e-16 0.0625
endloop
endfacet
facet normal 0 0 1
outer loop
vertex 2.5 0.19999999999999996 0.0625
vertex 2.5 0.3 0.0625
vertex 2.0267949192431125 0.3 0.0625
endloop
endfacet
facet normal 0 0 1
outer loop
vertex 2.5 0.19999999999999996 0.0625
vertex 2.0267949192431125 0.3 0.0625
vertex 2.084529946162075 0.19999999999999996 0.0625
endloop
endfacet
facet normal 0 0 1
outer loop
vertex 6.700000000000001 0.3 0.0625
vertex 6.5 0.5 0.0625
vertex 1.9113248654051875 0.5 0.0625
endloop
endfacet
facet normal 0 0 1
outer loop
vertex 6.700000000000001 0.3 0.0625
vertex 1.9113248654051875 0.5 0.0625
vertex 2.0267949192431125 0.3 0.0625
endloop
endfacet
facet normal 0 0 1
outer loop
vertex 1.9133974596215564 0.15000000000000002 0.0625
vertex 1.5500000000000003 0.7794228634059948 0.0625
vertex 0.6499999999999997 0.7794228634059948 0.0625
endloop
endfacet
facet normal 0 0 1
outer loop
vertex 1.9133974596215564 0.15000000000000002 0.0625
vertex 0.6499999999999997 0.7794228634059948 0.0625
vertex 0.2866025403784437 0.15000000000000002 0.0625
endloop
endfacet
facet normal 0.7071067811865471 0.707106781186548 0
outer loop
vertex 6.5 0.5 0.0625
vertex 6.700000000000001 0.3 0.0625
vertex 6.700000000000001 0.3 -0.0625
endloop
endfacet
facet normal 0.7071067811865471 0.707106781186548 0
outer loop
vertex 6.5 0.5 0.0625
vertex 6.700000000000001 0.3 -0.0625
vertex 6.5 0.5 -0.0625
endloop
endfacet
facet normal 0.7071067811865471 0.707106781186548 0
outer loop
vertex 6.700000000000001 0.30000000000000027 0.024999999999999994
vertex 6.8000000000000025 0.19999999999999973 0.024999999999999994
vertex 6.8000000000000025 0.19999999999999973 -0.024999999999999994
endloop
endfacet
facet normal 0.7071067811865471 0.707106781186548 0
outer loop
vertex 6.700000000000001 0.30000000000000027 0.024999999999999994
vertex 6.8000000000000025 0.19999999999999973 -0.024999999999999994
vertex 6.700000000000001 0.30000000000000027 -0.024999999999999988
endloop
endfacet
facet normal 0.7071067811865471 0.707106781186548 0
outer loop
vertex 6.800000000000001 0.19999999999999996 0.0625
vertex 7 2.220446049250313e-16 0.0625
vertex 7 1.942890293094024e-16 -0.0625
endloop
endfacet
facet normal 0.7071067811865471 0.707106781186548 0
outer loop
vertex 6.800000000000001 0.19999999999999996 0.0625
vertex 7 1.942890293094024e-16 -0.0625
vertex 6.800000000000001 0.2 -0.0625
endloop
endfacet
facet normal 0.7071067811865476 -0.7071067811865476 0
outer loop
vertex 6.5 -0.5 -0.0625
vertex 7 1.942890293094024e-16 -0.0625
vertex 7 2.220446049250313e-16 0.0625
endloop
endfacet
facet normal 0.7071067811865476 -0.7071067811865476 0
outer loop
vertex 6.5 -0.5 -0.0625
vertex 7 2.220446049250313e-16 0.0625
vertex 6.5 -0.5 0.0625
endloop
endfacet
facet normal -0.7071067811865476 -0.7071067811865475 0
outer loop
vertex 2.9444444444444446 -0.5 -0.0625
vertex 2.944444444444444 -0.5 0.0625
vertex 2.7222222222222223 -0.2777777777777777 0.0625
endloop
endfacet
facet normal -0.7071067811865476 -0.7071067811865475 0
outer loop
vertex 2.9444444444444446 -0.5 -0.0625
vertex 2.7222222222222223 -0.2777777777777777 0.0625
vertex 2.7222222222222223 -0.27777777777777785 -0.0625
endloop
endfacet
facet normal 0.7071067811865474 -0.7071067811865478 0
outer loop
vertex 2.7222222222222223 -0.27777777777777785 -0.0625
vertex 2.7222222222222223 -0.2777777777777777 0.0625
vertex 2.5 -0.5 0.0625
endloop
endfacet
facet normal 0.7071067811865474 -0.7071067811865478 0
outer loop
vertex 2.7222222222222223 -0.27777777777777785 -0.0625
vertex 2.5 -0.5 0.0625
vertex 2.5000000000000004 -0.5 -0.0625
endloop
endfacet
facet normal -0.7071067811865476 -0.7071067811865476 0
outer loop
vertex 3.8333333333333335 -0.5 -0.0625
vertex 3.8333333333333335 -0.5 0.0625
vertex 3.611111111111111 -0.2777777777777777 0.0625
endloop
endfacet
facet normal -0.7071067811865476 -0.7071067811865476 0
outer loop
vertex 3.8333333333333335 -0.5 -0.0625
vertex 3.611111111111111 -0.2777777777777777 0.0625
vertex 3.6111111111111107 -0.27777777777777785 -0.0625
endloop
endfacet
facet normal 0.7071067811865477 -0.7071067811865475 0
outer loop
vertex 3.6111111111111107 -0.27777777777777785 -0.0625
vertex 3.611111111111111 -0.2777777777777777 0.0625
vertex 3.3888888888888893 -0.5 0.0625
endloop
endfacet
facet normal 0.7071067811865477 -0.7071067811865475 0
outer loop
vertex 3.6111111111111107 -0.27777777777777785 -0.0625
vertex 3.3888888888888893 -0.5 0.0625
vertex 3.3888888888888897 -0.5 -0.0625
endloop
endfacet
facet normal -0.7071067811865478 -0.7071067811865471 0
outer loop
vertex 4.722222222222221 -0.5 -0.0625
vertex 4.722222222222221 -0.5 0.0625
vertex 4.5 -0.2777777777777777 0.0625
endloop
endfacet
facet normal -0.7071067811865478 -0.7071067811865471 0
outer loop
vertex 4.722222222222221 -0.5 -0.0625
vertex 4.5 -0.2777777777777777 0.0625
vertex 4.5 -0.27777777777777785 -0.0625
endloop
endfacet
facet normal 0.7071067811865474 -0.7071067811865478 0
outer loop
vertex 4.5 -0.27777777777777785 -0.0625
vertex 4.5 -0.2777777777777777 0.0625
vertex 4.277777777777778 -0.5 0.0625
endloop
endfacet
facet normal 0.7071067811865474 -0.7071067811865478 0
outer loop
vertex 4.5 -0.27777777777777785 -0.0625
vertex 4.277777777777778 -0.5 0.0625
vertex 4.277777777777779 -0.5 -0.0625
endloop
endfacet
facet normal -0.7071067811865472 -0.7071067811865477 0
outer loop
vertex 6.055555555555555 -0.5 -0.0625
vertex 6.055555555555557 -0.5 0.0625
vertex 5.833333333333334 -0.2777777777777777 0.0625
endloop
endfacet
facet normal -0.7071067811865472 -0.7071067811865477 0
outer loop
vertex 6.055555555555555 -0.5 -0.0625
vertex 5.833333333333334 -0.2777777777777777 0.0625
vertex 5.833333333333334 -0.27777777777777785 -0.0625
endloop
endfacet
facet normal 0.7071067811865478 -0.7071067811865474 0
outer loop
vertex 5.833333333333334 -0.27777777777777785 -0.0625
vertex 5.833333333333334 -0.2777777777777777 0.0625
vertex 5.611111111111111 -0.5 0.0625
endloop
endfacet
facet normal 0.7071067811865478 -0.7071067811865474 0
outer loop
vertex 5.833333333333334 -0.27777777777777785 -0.0625
vertex 5.611111111111111 -0.5 0.0625
vertex 5.611111111111111 -0.5 -0.0625
endloop
endfacet
facet normal -0.7071067811865472 -0.7071067811865477 0
outer loop
vertex 6.5 -0.5 -0.0625
vertex 6.5 -0.5 0.0625
vertex 6.277777777777777 -0.2777777777777777 0.0625
endloop
endfacet
facet normal -0.7071067811865472 -0.7071067811865477 0
outer loop
vertex 6.5 -0.5 -0.0625
vertex 6.277777777777777 -0.2777777777777777 0.0625
vertex 6.277777777777779 -0.27777777777777785 -0.0625
endloop
endfacet
facet normal 0.7071067811865478 -0.7071067811865474 0
outer loop
vertex 6.277777777777779 -0.27777777777777785 -0.0625
vertex 6.277777777777777 -0.2777777777777777 0.0625
vertex 6.055555555555557 -0.5 0.0625
endloop
endfacet
facet normal 0.7071067811865478 -0.7071067811865474 0
outer loop
vertex 6.277777777777779 -0.27777777777777785 -0.0625
vertex 6.055555555555557 -0.5 0.0625
vertex 6.055555555555555 -0.5 -0.0625
endloop
endfacet
facet normal 1 0 0
outer loop
vertex 2.5 0.3 -0.0625
vertex 2.5 0.3 -0.024999999999999994
vertex 2.5 0.2 -0.024999999999999994
endloop
endfacet
facet normal 1 0 0
outer loop
vertex 2.5 0.3 -0.0625
vertex 2.5 0.2 -0.024999999999999994
vertex 2.5 0.2 -0.0625
endloop
endfacet
facet normal 1 0 0
outer loop
vertex 2.5 0.3 0.024999999999999994
vertex 2.5 0.3 0.0625
vertex 2.5 0.19999999999999996 0.0625
endloop
endfacet
facet normal 1 0 0
outer loop
vertex 2.5 0.3 0.024999999999999994
vertex 2.5 0.19999999999999996 0.0625
vertex 2.5 0.2 0.024999999999999994
endloop
endfacet
facet normal 0 1 0
outer loop
vertex 6.800000000000001 0.19999999999999996 0.0625
vertex 6.8000000000000025 0.19999999999999973 0.024999999999999994
vertex 2.5 0.2 0.024999999999999994
endloop
endfacet
facet normal 0 1 0
outer loop
vertex 6.800000000000001 0.19999999999999996 0.0625
vertex 2.5 0.2 0.024999999999999994
vertex 2.5 0.19999999999999996 0.0625
endloop
endfacet
facet normal 0 1 0
outer loop
vertex 6.8000000000000025 0.19999999999999973 -0.024999999999999994
vertex 6.800000000000001 0.2 -0.0625
vertex 2.5 0.2 -0.0625
endloop
endfacet
facet normal 0 1 0
outer loop
vertex 6.8000000000000025 0.19999999999999973 -0.024999999999999994
vertex 2.5 0.2 -0.0625
vertex 2.5 0.2 -0.024999999999999994
endloop
endfacet
facet normal 0 -1 0
outer loop
vertex 6.700000000000001 0.3 -0.0625
vertex 6.700000000000001 0.30000000000000027 -0.024999999999999988
vertex 2.5 0.3 -0.024999999999999994
endloop
endfacet
facet normal 0 -1 0
outer loop
vertex 6.700000000000001 0.3 -0.0625
vertex 2.5 0.3 -0.024999999999999994
vertex 2.5 0.3 -0.0625
endloop
endfacet
facet normal 0 -1 0
outer loop
vertex 6.700000000000001 0.30000000000000027 0.024999999999999994
vertex 6.700000000000001 0.3 0.0625
vertex 2.5 0.3 0.0625
endloop
endfacet
facet normal 0 -1 0
outer loop
vertex 6.700000000000001 0.30000000000000027 0.024999999999999994
vertex 2.5 0.3 0.0625
vertex 2.5 0.3 0.024999999999999994
endloop
endfacet
facet normal 0 0 1
outer loop
vertex 6.8000000000000025 0.19999999999999973 0.024999999999999994
vertex 6.700000000000001 0.30000000000000027 0.024999999999999994
vertex 2.5 0.3 0.024999999999999994
endloop
endfacet
facet normal 0 0 1
outer loop
vertex 6.8000000000000025 0.19999999999999973 0.024999999999999994
vertex 2.5 0.3 0.024999999999999994
vertex 2.5 0.2 0.024999999999999994
endloop
endfacet
facet normal 0 0 -1
outer loop
vertex 6.8000000000000025 0.19999999999999973 -0.024999999999999994
vertex 2.5 0.2 -0.024999999999999994
vertex 2.5 0.3 -0.024999999999999994
endloop
endfacet
facet normal 0 0 -1
outer loop
vertex 6.8000000000000025 0.19999999999999973 -0.024999999999999994
vertex 2.5 0.3 -0.024999999999999994
vertex 6.700000000000001 0.30000000000000027 -0.024999999999999988
endloop
endfacet
facet normal -0.8660254037844387 0.5 0
outer loop
vertex 1.5500000000000003 -0.7794228634059949 -0.0625
vertex 2 1.942890293094024e-16 -0.0625
vertex 2 1.6653345369377348e-16 -0.1
endloop
endfacet
facet normal -0.8660254037844387 0.5 0
outer loop
vertex 1.5500000000000003 -0.7794228634059949 -0.0625
vertex 2 1.6653345369377348e-16 -0.1
vertex 1.5500000000000003 -0.7794228634059949 -0.1
endloop
endfacet
facet normal -0.8660254037844387 0.5 0
outer loop
vertex 1.5500000000000003 -0.7794228634059949 0.1
vertex 2 1.6653345369377348e-16 0.1
vertex 2 2.220446049250313e-16 0.0625
endloop
endfacet
facet normal -0.8660254037844387 0.5 0
outer loop
vertex 1.5500000000000003 -0.7794228634059949 0.1
vertex 2 2.220446049250313e-16 0.0625
vertex 1.5500000000000003 -0.7794228634059949 0.0625
endloop
endfacet
facet normal 0 0 -1
outer loop
vertex 1.6500000000000004 0.9526279441628823 -0.1
vertex 1.7500000000000002 0.7794228634059945 -0.1
vertex 0.4499999999999996 0.7794228634059945 -0.1
endloop
endfacet
facet normal 0 0 -1
outer loop
vertex 1.6500000000000004 0.9526279441628823 -0.1
vertex 0.4499999999999996 0.7794228634059945 -0.1
vertex 0.5499999999999996 0.9526279441628823 -0.1
endloop
endfacet
facet normal 0 0 -1
outer loop
vertex 0.6499999999999997 0.7794228634059945 -0.1
vertex 0.20000000000000007 0 -0.1
vertex 0 0 -0.1
endloop
endfacet
facet normal 0 0 -1
outer loop
vertex 0.6499999999999997 0.7794228634059945 -0.1
vertex 0 0 -0.1
vertex 0.4499999999999996 0.7794228634059945 -0.1
endloop
endfacet
facet normal 0 0 -1
outer loop
vertex 1.7500000000000002 0.7794228634059945 -0.1
vertex 2.2 0 -0.1
vertex 2 1.6653345369377348e-16 -0.1
endloop
endfacet
facet normal 0 0 -1
outer loop
vertex 1.7500000000000002 0.7794228634059945 -0.1
vertex 2 1.6653345369377348e-16 -0.1
vertex 1.5500000000000003 0.7794228634059945 -0.1
endloop
endfacet
facet normal 0 0 -1
outer loop
vertex 0.20000000000000007 0 -0.1
vertex 0.6500000000000004 -0.7794228634059948 -0.1
vertex 0.4500000000000002 -0.7794228634059948 -0.1
endloop
endfacet
facet normal 0 0 -1
outer loop
vertex 0.20000000000000007 0 -0.1
vertex 0.4500000000000002 -0.7794228634059948 -0.1
vertex 0 0 -0.1
endloop
endfacet
facet normal 0 0 -1
outer loop
vertex 2.2 0 -0.1
vertex 1.7500000000000002 -0.7794228634059948 -0.1
vertex 1.5500000000000003 -0.7794228634059949 -0.1
endloop
endfacet
facet normal 0 0 -1
outer loop
vertex 2.2 0 -0.1
vertex 1.5500000000000003 -0.7794228634059949 -0.1
vertex 2 1.6653345369377348e-16 -0.1
endloop
endfacet
facet normal 0 0 -1
outer loop
vertex 1.7500000000000002 -0.7794228634059948 -0.1
vertex 1.6500000000000004 -0.9526279441628825 -0.1
vertex 0.5500000000000003 -0.9526279441628825 -0.1
endloop
endfacet
facet normal 0 0 -1
outer loop
vertex 1.7500000000000002 -0.7794228634059948 -0.1
vertex 0.5500000000000003 -0.9526279441628825 -0.1
vertex 0.4500000000000002 -0.7794228634059948 -0.1
endloop
endfacet
facet normal 0.8660254037844387 -0.5 0
outer loop
vertex 2.2 1.942890293094024e-16 -0.0625
vertex 1.9113248654051873 -0.5 -0.0625
vertex 1.9113248654051873 -0.5 -0.1
endloop
endfacet
facet normal 0.8660254037844387 -0.5 0
outer loop
vertex 2.2 1.942890293094024e-16 -0.0625
vertex 1.9113248654051873 -0.5 -0.1
vertex 2.2 0 -0.1
endloop
endfacet
facet normal 0.8660254037844387 -0.5 0
outer loop
vertex 2.2 2.220446049250313e-16 0.1
vertex 1.9113248654051873 -0.5 0.1
vertex 1.9113248654051873 -0.5 0.0625
endloop
endfacet
facet normal 0.8660254037844387 -0.5 0
outer loop
vertex 2.2 2.220446049250313e-16 0.1
vertex 1.9113248654051873 -0.5 0.0625
vertex 2.2 2.220446049250313e-16 0.0625
endloop
endfacet
facet normal 0.8660254037844387 -0.5 0
outer loop
vertex 1.9113248654051873 -0.5 0.1
vertex 1.6500000000000004 -0.9526279441628825 0.1
vertex 1.6500000000000004 -0.9526279441628825 -0.1
endloop
endfacet
facet normal 0.8660254037844387 -0.5 0
outer loop
vertex 1.9113248654051873 -0.5 0.1
vertex 1.6500000000000004 -0.9526279441628825 -0.1
vertex 1.9113248654051873 -0.5 -0.1
endloop
endfacet
facet normal 0 0 1
outer loop
vertex 1.6500000000000004 -0.9526279441628825 0.1
vertex 1.7500000000000002 -0.7794228634059948 0.1
vertex 0.4500000000000002 -0.7794228634059948 0.1
endloop
endfacet
facet normal 0 0 1
outer loop
vertex 1.6500000000000004 -0.9526279441628825 0.1
vertex 0.4500000000000002 -0.7794228634059948 0.1
vertex 0.5500000000000003 -0.9526279441628825 0.1
endloop
endfacet
facet normal 0 0 1
outer loop
vertex 0.6500000000000004 -0.7794228634059948 0.1
vertex 0.20000000000000007 0 0.1
vertex 0 0 0.1
endloop
endfacet
facet normal 0 0 1
outer loop
vertex 0.6500000000000004 -0.7794228634059948 0.1
vertex 0 0 0.1
vertex 0.4500000000000002 -0.7794228634059948 0.1
endloop
endfacet
facet normal 0 0 1
outer loop
vertex 1.7500000000000002 -0.7794228634059948 0.1
vertex 2.2 2.220446049250313e-16 0.1
vertex 2 1.6653345369377348e-16 0.1
endloop
endfacet
facet normal 0 0 1
outer loop
vertex 1.7500000000000002 -0.7794228634059948 0.1
vertex 2 1.6653345369377348e-16 0.1
vertex 1.5500000000000003 -0.7794228634059949 0.1
endloop
endfacet
facet normal 0 0 1
outer loop
vertex 0.20000000000000007 0 0.1
vertex 0.6499999999999997 0.7794228634059945 0.1
vertex 0.4499999999999996 0.7794228634059945 0.1
endloop
endfacet
facet normal 0 0 1
outer loop
vertex 0.20000000000000007 0 0.1
vertex 0.4499999999999996 0.7794228634059945 0.1
vertex 0 0 0.1
endloop
endfacet
facet normal 0 0 1
outer loop
vertex 2.2 2.220446049250313e-16 0.1
vertex 1.7500000000000002 0.7794228634059945 0.1
vertex 1.5500000000000003 0.7794228634059945 0.1
endloop
endfacet
facet normal 0 0 1
outer loop
vertex 2.2 2.220446049250313e-16 0.1
vertex 1.5500000000000003 0.7794228634059945 0.1
vertex 2 1.6653345369377348e-16 0.1
endloop
endfacet
facet normal 0 0 1
outer loop
vertex 1.7500000000000002 0.7794228634059945 0.1
vertex 1.6500000000000004 0.9526279441628823 0.1
vertex 0.5499999999999996 0.9526279441628823 0.1
endloop
endfacet
facet normal 0 0 1
outer loop
vertex 1.7500000000000002 0.7794228634059945 0.1
vertex 0.5499999999999996 0.9526279441628823 0.1
vertex 0.4499999999999996 0.7794228634059945 0.1
endloop
endfacet
facet normal -1.1102230246251565e-16 1 0
outer loop
vertex 0.6500000000000004 -0.7794228634059949 -0.0625
vertex 1.5500000000000003 -0.7794228634059949 -0.0625
vertex 1.5500000000000003 -0.7794228634059949 -0.1
endloop
endfacet
facet normal -1.1102230246251565e-16 1 0
outer loop
vertex 0.6500000000000004 -0.7794228634059949 -0.0625
vertex 1.5500000000000003 -0.7794228634059949 -0.1
vertex 0.6500000000000004 -0.7794228634059948 -0.1
endloop
endfacet
facet normal -1.1102230246251565e-16 1 0
outer loop
vertex 0.6500000000000004 -0.7794228634059948 0.1
vertex 1.5500000000000003 -0.7794228634059949 0.1
vertex 1.5500000000000003 -0.7794228634059949 0.0625
endloop
endfacet
facet normal -1.1102230246251565e-16 1 0
outer loop
vertex 0.6500000000000004 -0.7794228634059948 0.1
vertex 1.5500000000000003 -0.7794228634059949 0.0625
vertex 0.6500000000000004 -0.7794228634059949 0.0625
endloop
endfacet
facet normal 1.1102230246251568e-16 -1 0
outer loop
vertex 1.6500000000000004 -0.9526279441628825 -0.1
vertex 1.6500000000000004 -0.9526279441628825 0.1
vertex 0.5500000000000003 -0.9526279441628825 0.1
endloop
endfacet
facet normal 1.1102230246251568e-16 -1 0
outer loop
vertex 1.6500000000000004 -0.9526279441628825 -0.1
vertex 0.5500000000000003 -0.9526279441628825 0.1
vertex 0.5500000000000003 -0.9526279441628825 -0.1
endloop
endfacet
facet normal 0.8660254037844386 0.5000000000000002 0
outer loop
vertex 0.19999999999999996 1.942890293094024e-16 -0.0625
vertex 0.6500000000000004 -0.7794228634059949 -0.0625
vertex 0.6500000000000004 -0.7794228634059948 -0.1
endloop
endfacet
facet normal 0.8660254037844386 0.5000000000000002 0
outer loop
vertex 0.19999999999999996 1.942890293094024e-16 -0.0625
vertex 0.6500000000000004 -0.7794228634059948 -0.1
vertex 0.20000000000000007 0 -0.1
endloop
endfacet
facet normal 0.8660254037844386 0.5000000000000002 0
outer loop
vertex 0.20000000000000007 0 0.1
vertex 0.6500000000000004 -0.7794228634059948 0.1
vertex 0.6500000000000004 -0.7794228634059949 0.0625
endloop
endfacet
facet normal 0.8660254037844386 0.5000000000000002 0
outer loop
vertex 0.20000000000000007 0 0.1
vertex 0.6500000000000004 -0.7794228634059949 0.0625
vertex 0.19999999999999996 2.220446049250313e-16 0.0625
endloop
endfacet
facet normal -0.8660254037844386 -0.5000000000000001 0
outer loop
vertex 0.5500000000000003 -0.9526279441628825 -0.1
vertex 0.5500000000000003 -0.9526279441628825 0.1
vertex 0 0 0.1
endloop
endfacet
facet normal -0.8660254037844386 -0.5000000000000001 0
outer loop
vertex 0.5500000000000003 -0.9526279441628825 -0.1
vertex 0 0 0.1
vertex 0 0 -0.1
endloop
endfacet
facet normal 0.8660254037844388 -0.4999999999999998 0
outer loop
vertex 0.6499999999999997 0.7794228634059946 -0.0625
vertex 0.19999999999999996 1.942890293094024e-16 -0.0625
vertex 0.20000000000000007 0 -0.1
endloop
endfacet
facet normal 0.8660254037844388 -0.4999999999999998 0
outer loop
vertex 0.6499999999999997 0.7794228634059946 -0.0625
vertex 0.20000000000000007 0 -0.1
vertex 0.6499999999999997 0.7794228634059945 -0.1
endloop
endfacet
facet normal 0.8660254037844388 -0.4999999999999998 0
outer loop
vertex 0.6499999999999997 0.7794228634059945 0.1
vertex 0.20000000000000007 0 0.1
vertex 0.19999999999999996 2.220446049250313e-16 0.0625
endloop
endfacet
facet normal 0.8660254037844388 -0.4999999999999998 0
outer loop
vertex 0.6499999999999997 0.7794228634059945 0.1
vertex 0.19999999999999996 2.220446049250313e-16 0.0625
vertex 0.6499999999999997 0.7794228634059948 0.0625
endloop
endfacet
facet normal -0.8660254037844388 0.4999999999999998 0
outer loop
vertex 0 0 -0.1
vertex 0 0 0.1
vertex 0.5499999999999996 0.9526279441628823 0.1
endloop
endfacet
facet normal -0.8660254037844388 0.4999999999999998 0
outer loop
vertex 0 0 -0.1
vertex 0.5499999999999996 0.9526279441628823 0.1
vertex 0.5499999999999996 0.9526279441628823 -0.1
endloop
endfacet
facet normal 2.220446049250313e-16 -1 0
outer loop
vertex 1.5500000000000003 0.7794228634059946 -0.0625
vertex 0.6499999999999997 0.7794228634059946 -0.0625
vertex 0.6499999999999997 0.7794228634059945 -0.1
endloop
endfacet
facet normal 2.220446049250313e-16 -1 0
outer loop
vertex 1.5500000000000003 0.7794228634059946 -0.0625
vertex 0.6499999999999997 0.7794228634059945 -0.1
vertex 1.5500000000000003 0.7794228634059945 -0.1
endloop
endfacet
facet normal 2.220446049250313e-16 -1 0
outer loop
vertex 1.5500000000000003 0.7794228634059945 0.1
vertex 0.6499999999999997 0.7794228634059945 0.1
vertex 0.6499999999999997 0.7794228634059948 0.0625
endloop
endfacet
facet normal 2.220446049250313e-16 -1 0
outer loop
vertex 1.5500000000000003 0.7794228634059945 0.1
vertex 0.6499999999999997 0.7794228634059948 0.0625
vertex 1.5500000000000003 0.7794228634059948 0.0625
endloop
endfacet
facet normal -2.2204460492503136e-16 1 0
outer loop
vertex 0.5499999999999996 0.9526279441628823 -0.1
vertex 0.5499999999999996 0.9526279441628823 0.1
vertex 1.6500000000000004 0.9526279441628823 0.1
endloop
endfacet
facet normal -2.2204460492503136e-16 1 0
outer loop
vertex 0.5499999999999996 0.9526279441628823 -0.1
vertex 1.6500000000000004 0.9526279441628823 0.1
vertex 1.6500000000000004 0.9526279441628823 -0.1
endloop
endfacet
facet normal -0.8660254037844386 -0.4999999999999999 0
outer loop
vertex 2 1.942890293094024e-16 -0.0625
vertex 1.5500000000000003 0.7794228634059946 -0.0625
vertex 1.5500000000000003 0.7794228634059945 -0.1
endloop
endfacet
facet normal -0.8660254037844386 -0.4999999999999999 0
outer loop
vertex 2 1.942890293094024e-16 -0.0625
vertex 1.5500000000000003 0.7794228634059945 -0.1
vertex 2 1.6653345369377348e-16 -0.1
endloop
endfacet
facet normal -0.8660254037844386 -0.4999999999999999 0
outer loop
vertex 2 1.6653345369377348e-16 0.1
vertex 1.5500000000000003 0.7794228634059945 0.1
vertex 1.5500000000000003 0.7794228634059948 0.0625
endloop
endfacet
facet normal -0.8660254037844386 -0.4999999999999999 0
outer loop
vertex 2 1.6653345369377348e-16 0.1
vertex 1.5500000000000003 0.7794228634059948 0.0625
vertex 2 2.220446049250313e-16 0.0625
endloop
endfacet
facet normal 0.8660254037844387 0.5000000000000001 0
outer loop
vertex 1.6500000000000004 0.9526279441628823 0.1
vertex 1.9113248654051873 0.49999999999999994 0.1
vertex 1.9113248654051873 0.49999999999999994 -0.1
endloop
endfacet
facet normal 0.8660254037844387 0.5000000000000001 0
outer loop
vertex 1.6500000000000004 0.9526279441628823 0.1
vertex 1.9113248654051873 0.49999999999999994 -0.1
vertex 1.6500000000000004 0.9526279441628823 -0.1
endloop
endfacet
facet normal 0.8660254037844387 0.5000000000000001 0
outer loop
vertex 1.9113248654051873 0.5 -0.0625
vertex 2.2 1.942890293094024e-16 -0.0625
vertex 2.2 0 -0.1
endloop
endfacet
facet normal 0.8660254037844387 0.5000000000000001 0
outer loop
vertex 1.9113248654051873 0.5 -0.0625
vertex 2.2 0 -0.1
vertex 1.9113248654051873 0.49999999999999994 -0.1
endloop
endfacet
facet normal 0.8660254037844387 0.5000000000000001 0
outer loop
vertex 1.9113248654051873 0.49999999999999994 0.1
vertex 2.2 2.220446049250313e-16 0.1
vertex 2.2 2.220446049250313e-16 0.0625
endloop
endfacet
facet normal 0.8660254037844387 0.5000000000000001 0
outer loop
vertex 1.9113248654051873 0.49999999999999994 0.1
vertex 2.2 2.220446049250313e-16 0.0625
vertex 1.9113248654051875 0.5 0.0625
endloop
endfacet
facet normal -0.9951847266721968 0.09801714032956076 0
outer loop
vertex 0.7471177920604846 -0.029263548302419562 -0.0625
vertex 0.7471177920604846 -0.029263548302419284 0.0625
vertex 0.75 2.220446049250313e-16 0.0625
endloop
endfacet
facet normal -0.9951847266721968 0.09801714032956076 0
outer loop
vertex 0.7471177920604846 -0.029263548302419562 -0.0625
vertex 0.75 2.220446049250313e-16 0.0625
vertex 0.75 1.942890293094024e-16 -0.0625
endloop
endfacet
facet normal -0.9569403357322089 0.29028467725446205 0
outer loop
vertex 0.7385819298766931 -0.05740251485476361 -0.0625
vertex 0.7385819298766929 -0.057402514854763956 0.0625
vertex 0.7471177920604846 -0.029263548302419284 0.0625
endloop
endfacet
facet normal -0.9569403357322089 0.29028467725446205 0
outer loop
vertex 0.7385819298766931 -0.05740251485476361 -0.0625
vertex 0.7471177920604846 -0.029263548302419284 0.0625
vertex 0.7471177920604846 -0.029263548302419562 -0.0625
endloop
endfacet
facet normal -0.8819212643483549 0.47139673682599803 0
outer loop
vertex 0.7247204418453819 -0.08333553495294027 -0.0625
vertex 0.7247204418453823 -0.08333553495293987 0.0625
vertex 0.7385819298766929 -0.057402514854763956 0.0625
endloop
endfacet
facet normal -0.8819212643483549 0.47139673682599803 0
outer loop
vertex 0.7247204418453819 -0.08333553495294027 -0.0625
vertex 0.7385819298766929 -0.057402514854763956 0.0625
vertex 0.7385819298766931 -0.05740251485476361 -0.0625
endloop
endfacet
facet normal -0.773010453362737 0.6343932841636456 0
outer loop
vertex 0.7060660171779822 -0.10606601717798214 -0.0625
vertex 0.7060660171779822 -0.10606601717798217 0.0625
vertex 0.7247204418453823 -0.08333553495293987 0.0625
endloop
endfacet
facet normal -0.773010453362737 0.6343932841636456 0
outer loop
vertex 0.7060660171779822 -0.10606601717798214 -0.0625
vertex 0.7247204418453823 -0.08333553495293987 0.0625
vertex 0.7247204418453819 -0.08333553495294027 -0.0625
endloop
endfacet
facet normal -0.6343932841636459 0.7730104533627367 0
outer loop
vertex 0.6833355349529406 -0.1247204418453817 -0.0625
vertex 0.6833355349529404 -0.12472044184538177 0.0625
vertex 0.7060660171779822 -0.10606601717798217 0.0625
endloop
endfacet
facet normal -0.6343932841636459 0.7730104533627367 0
outer loop
vertex 0.6833355349529406 -0.1247204418453817 -0.0625
vertex 0.7060660171779822 -0.10606601717798217 0.0625
vertex 0.7060660171779822 -0.10606601717798214 -0.0625
endloop
endfacet
facet normal -0.47139673682599775 0.8819212643483552 0
outer loop
vertex 0.6574025148547635 -0.13858192987669302 -0.0625
vertex 0.6574025148547635 -0.13858192987669302 0.0625
vertex 0.6833355349529404 -0.12472044184538177 0.0625
endloop
endfacet
facet normal -0.47139673682599775 0.8819212643483552 0
outer loop
vertex 0.6574025148547635 -0.13858192987669302 -0.0625
vertex 0.6833355349529404 -0.12472044184538177 0.0625
vertex 0.6833355349529406 -0.1247204418453817 -0.0625
endloop
endfacet
facet normal -0.2902846772544621 0.956940335732209 0
outer loop
vertex 0.6292635483024193 -0.1471177920604846 -0.0625
vertex 0.6292635483024192 -0.14711779206048461 0.0625
vertex 0.6574025148547635 -0.13858192987669302 0.0625
endloop
endfacet
facet normal -0.2902846772544621 0.956940335732209 0
outer loop
vertex 0.6292635483024193 -0.1471177920604846 -0.0625
vertex 0.6574025148547635 -0.13858192987669302 0.0625
vertex 0.6574025148547635 -0.13858192987669302 -0.0625
endloop
endfacet
facet normal -0.09801714032956071 0.9951847266721969 0
outer loop
vertex 0.6000000000000002 -0.15 -0.0625
vertex 0.6000000000000002 -0.15000000000000002 0.0625
vertex 0.6292635483024192 -0.14711779206048461 0.0625
endloop
endfacet
facet normal -0.09801714032956071 0.9951847266721969 0
outer loop
vertex 0.6000000000000002 -0.15 -0.0625
vertex 0.6292635483024192 -0.14711779206048461 0.0625
vertex 0.6292635483024193 -0.1471177920604846 -0.0625
endloop
endfacet
facet normal 0.09801714032956071 0.9951847266721969 0
outer loop
vertex 0.5707364516975809 -0.1471177920604846 -0.0625
vertex 0.5707364516975812 -0.14711779206048461 0.0625
vertex 0.6000000000000002 -0.15000000000000002 0.0625
endloop
endfacet
facet normal 0.09801714032956071 0.9951847266721969 0
outer loop
vertex 0.5707364516975809 -0.1471177920604846 -0.0625
vertex 0.6000000000000002 -0.15000000000000002 0.0625
vertex 0.6000000000000002 -0.15 -0.0625
endloop
endfacet
facet normal 0.2902846772544621 0.9569403357322089 0
outer loop
vertex 0.5425974851452366 -0.13858192987669302 -0.0625
vertex 0.5425974851452368 -0.13858192987669302 0.0625
vertex 0.5707364516975812 -0.14711779206048461 0.0625
endloop
endfacet
facet normal 0.2902846772544621 0.9569403357322089 0
outer loop
vertex 0.5425974851452366 -0.13858192987669302 -0.0625
vertex 0.5707364516975812 -0.14711779206048461 0.0625
vertex 0.5707364516975809 -0.1471177920604846 -0.0625
endloop
endfacet
facet normal 0.4713967368259978 0.8819212643483549 0
outer loop
vertex 0.5166644650470597 -0.1247204418453817 -0.0625
vertex 0.5166644650470601 -0.12472044184538177 0.0625
vertex 0.5425974851452368 -0.13858192987669302 0.0625
endloop
endfacet
facet normal 0.4713967368259978 0.8819212643483549 0
outer loop
vertex 0.5166644650470597 -0.1247204418453817 -0.0625
vertex 0.5425974851452368 -0.13858192987669302 0.0625
vertex 0.5425974851452366 -0.13858192987669302 -0.0625
endloop
endfacet
facet normal 0.6343932841636455 0.7730104533627371 0
outer loop
vertex 0.49393398282201806 -0.10606601717798214 -0.0625
vertex 0.49393398282201784 -0.10606601717798217 0.0625
vertex 0.5166644650470601 -0.12472044184538177 0.0625
endloop
endfacet
facet normal 0.6343932841636455 0.7730104533627371 0
outer loop
vertex 0.49393398282201806 -0.10606601717798214 -0.0625
vertex 0.5166644650470601 -0.12472044184538177 0.0625
vertex 0.5166644650470597 -0.1247204418453817 -0.0625
endloop
endfacet
facet normal 0.7730104533627368 0.6343932841636458 0
outer loop
vertex 0.4752795581546183 -0.08333553495294027 -0.0625
vertex 0.47527955815461786 -0.08333553495293987 0.0625
vertex 0.49393398282201784 -0.10606601717798217 0.0625
endloop
endfacet
facet normal 0.7730104533627368 0.6343932841636458 0
outer loop
vertex 0.4752795581546183 -0.08333553495294027 -0.0625
vertex 0.49393398282201784 -0.10606601717798217 0.0625
vertex 0.49393398282201806 -0.10606601717798214 -0.0625
endloop
endfacet
facet normal 0.8819212643483549 0.4713967368259979 0
outer loop
vertex 0.4614180701233067 -0.05740251485476361 -0.0625
vertex 0.4614180701233074 -0.057402514854763956 0.0625
vertex 0.47527955815461786 -0.08333553495293987 0.0625
endloop
endfacet
facet normal 0.8819212643483549 0.4713967368259979 0
outer loop
vertex 0.4614180701233067 -0.05740251485476361 -0.0625
vertex 0.47527955815461786 -0.08333553495293987 0.0625
vertex 0.4752795581546183 -0.08333553495294027 -0.0625
endloop
endfacet
facet normal 0.9569403357322089 0.29028467725446233 0
outer loop
vertex 0.4528822079395155 -0.029263548302419562 -0.0625
vertex 0.45288220793951506 -0.029263548302419284 0.0625
vertex 0.4614180701233074 -0.057402514854763956 0.0625
endloop
endfacet
facet normal 0.9569403357322089 0.29028467725446233 0
outer loop
vertex 0.4528822079395155 -0.029263548302419562 -0.0625
vertex 0.4614180701233074 -0.057402514854763956 0.0625
vertex 0.4614180701233067 -0.05740251485476361 -0.0625
endloop
endfacet
facet normal 0.9951847266721969 0.09801714032956055 0
outer loop
vertex 0.45000000000000007 1.942890293094024e-16 -0.0625
vertex 0.4500000000000002 2.220446049250313e-16 0.0625
vertex 0.45288220793951506 -0.029263548302419284 0.0625
endloop
endfacet
facet normal 0.9951847266721969 0.09801714032956055 0
outer loop
vertex 0.45000000000000007 1.942890293094024e-16 -0.0625
vertex 0.45288220793951506 -0.029263548302419284 0.0625
vertex 0.4528822079395155 -0.029263548302419562 -0.0625
endloop
endfacet
facet normal 0.9951847266721969 -0.09801714032956055 0
outer loop
vertex 0.4528822079395156 0.02926354830242006 -0.0625
vertex 0.4528822079395155 0.029263548302418996 0.0625
vertex 0.4500000000000002 2.220446049250313e-16 0.0625
endloop
endfacet
facet normal 0.9951847266721969 -0.09801714032956055 0
outer loop
vertex 0.4528822079395156 0.02926354830242006 -0.0625
vertex 0.4500000000000002 2.220446049250313e-16 0.0625
vertex 0.45000000000000007 1.942890293094024e-16 -0.0625
endloop
endfacet
facet normal 0.9569403357322088 -0.2902846772544624 0
outer loop
vertex 0.4614180701233067 0.05740251485476283 -0.0625
vertex 0.46141807012330704 0.05740251485476347 0.0625
vertex 0.4528822079395155 0.029263548302418996 0.0625
endloop
endfacet
facet normal 0.9569403357322088 -0.2902846772544624 0
outer loop
vertex 0.4614180701233067 0.05740251485476283 -0.0625
vertex 0.4528822079395155 0.029263548302418996 0.0625
vertex 0.4528822079395156 0.02926354830242006 -0.0625
endloop
endfacet
facet normal 0.8819212643483549 -0.4713967368259976 0
outer loop
vertex 0.4752795581546184 0.08333553495294066 -0.0625
vertex 0.4752795581546182 0.0833355349529402 0.0625
vertex 0.46141807012330704 0.05740251485476347 0.0625
endloop
endfacet
facet normal 0.8819212643483549 -0.4713967368259976 0
outer loop
vertex 0.4752795581546184 0.08333553495294066 -0.0625
vertex 0.46141807012330704 0.05740251485476347 0.0625
vertex 0.4614180701233067 0.05740251485476283 -0.0625
endloop
endfacet
facet normal 0.7730104533627375 -0.6343932841636448 0
outer loop
vertex 0.4939339828220175 0.10606601717798175 -0.0625
vertex 0.49393398282201795 0.10606601717798209 0.0625
vertex 0.4752795581546182 0.0833355349529402 0.0625
endloop
endfacet
facet normal 0.7730104533627375 -0.6343932841636448 0
outer loop
vertex 0.4939339828220175 0.10606601717798175 -0.0625
vertex 0.4752795581546182 0.0833355349529402 0.0625
vertex 0.4752795581546184 0.08333553495294066 -0.0625
endloop
endfacet
facet normal 0.634393284163645 -0.7730104533627372 0
outer loop
vertex 0.5166644650470595 0.12472044184538161 -0.0625
vertex 0.5166644650470594 0.1247204418453816 0.0625
vertex 0.49393398282201795 0.10606601717798209 0.0625
endloop
endfacet
facet normal 0.634393284163645 -0.7730104533627372 0
outer loop
vertex 0.5166644650470595 0.12472044184538161 -0.0625
vertex 0.49393398282201795 0.10606601717798209 0.0625
vertex 0.4939339828220175 0.10606601717798175 -0.0625
endloop
endfacet
facet normal 0.4713967368259977 -0.881921264348355 0
outer loop
vertex 0.5425974851452365 0.13858192987669293 -0.0625
vertex 0.5425974851452363 0.13858192987669285 0.0625
vertex 0.5166644650470594 0.1247204418453816 0.0625
endloop
endfacet
facet normal 0.4713967368259977 -0.881921264348355 0
outer loop
vertex 0.5425974851452365 0.13858192987669293 -0.0625
vertex 0.5166644650470594 0.1247204418453816 0.0625
vertex 0.5166644650470595 0.12472044184538161 -0.0625
endloop
endfacet
facet normal 0.2902846772544627 -0.9569403357322088 0
outer loop
vertex 0.570736451697581 0.1471177920604846 -0.0625
vertex 0.570736451697581 0.14711779206048456 0.0625
vertex 0.5425974851452363 0.13858192987669285 0.0625
endloop
endfacet
facet normal 0.2902846772544627 -0.9569403357322088 0
outer loop
vertex 0.570736451697581 0.1471177920604846 -0.0625
vertex 0.5425974851452363 0.13858192987669285 0.0625
vertex 0.5425974851452365 0.13858192987669293 -0.0625
endloop
endfacet
facet normal 0.09801714032956156 -0.9951847266721968 0
outer loop
vertex 0.6 0.15000000000000002 -0.0625
vertex 0.6000000000000003 0.15000000000000002 0.0625
vertex 0.570736451697581 0.14711779206048456 0.0625
endloop
endfacet
facet normal 0.09801714032956156 -0.9951847266721968 0
outer loop
vertex 0.6 0.15000000000000002 -0.0625
vertex 0.570736451697581 0.14711779206048456 0.0625
vertex 0.570736451697581 0.1471177920604846 -0.0625
endloop
endfacet
facet normal -0.0980171403295606 -0.9951847266721969 0
outer loop
vertex 0.6292635483024193 0.1471177920604846 -0.0625
vertex 0.6292635483024194 0.14711779206048456 0.0625
vertex 0.6000000000000003 0.15000000000000002 0.0625
endloop
endfacet
facet normal -0.0980171403295606 -0.9951847266721969 0
outer loop
vertex 0.6292635483024193 0.1471177920604846 -0.0625
vertex 0.6000000000000003 0.15000000000000002 0.0625
vertex 0.6 0.15000000000000002 -0.0625
endloop
endfacet
facet normal -0.2902846772544626 -0.9569403357322088 0
outer loop
vertex 0.6574025148547638 0.13858192987669293 -0.0625
vertex 0.6574025148547633 0.13858192987669285 0.0625
vertex 0.6292635483024194 0.14711779206048456 0.0625
endloop
endfacet
facet normal -0.2902846772544626 -0.9569403357322088 0
outer loop
vertex 0.6574025148547638 0.13858192987669293 -0.0625
vertex 0.6292635483024194 0.14711779206048456 0.0625
vertex 0.6292635483024193 0.1471177920604846 -0.0625
endloop
endfacet
facet normal -0.4713967368259978 -0.8819212643483549 0
outer loop
vertex 0.6833355349529405 0.12472044184538161 -0.0625
vertex 0.6833355349529406 0.1247204418453816 0.0625
vertex 0.6574025148547633 0.13858192987669285 0.0625
endloop
endfacet
facet normal -0.4713967368259978 -0.8819212643483549 0
outer loop
vertex 0.6833355349529405 0.12472044184538161 -0.0625
vertex 0.6574025148547633 0.13858192987669285 0.0625
vertex 0.6574025148547638 0.13858192987669293 -0.0625
endloop
endfacet
facet normal -0.6343932841636448 -0.7730104533627375 0
outer loop
vertex 0.7060660171779827 0.10606601717798175 -0.0625
vertex 0.706066017177982 0.10606601717798209 0.0625
vertex 0.6833355349529406 0.1247204418453816 0.0625
endloop
endfacet
facet normal -0.6343932841636448 -0.7730104533627375 0
outer loop
vertex 0.7060660171779827 0.10606601717798175 -0.0625
vertex 0.6833355349529406 0.1247204418453816 0.0625
vertex 0.6833355349529405 0.12472044184538161 -0.0625
endloop
endfacet
facet normal -0.773010453362737 -0.6343932841636454 0
outer loop
vertex 0.7247204418453813 0.08333553495294066 -0.0625
vertex 0.7247204418453816 0.0833355349529402 0.0625
vertex 0.706066017177982 0.10606601717798209 0.0625
endloop
endfacet
facet normal -0.773010453362737 -0.6343932841636454 0
outer loop
vertex 0.7247204418453813 0.08333553495294066 -0.0625
vertex 0.706066017177982 0.10606601717798209 0.0625
vertex 0.7060660171779827 0.10606601717798175 -0.0625
endloop
endfacet
facet normal -0.881921264348355 -0.47139673682599775 0
outer loop
vertex 0.7385819298766935 0.05740251485476283 -0.0625
vertex 0.7385819298766931 0.05740251485476347 0.0625
vertex 0.7247204418453816 0.0833355349529402 0.0625
endloop
endfacet
facet normal -0.881921264348355 -0.47139673682599775 0
outer loop
vertex 0.7385819298766935 0.05740251485476283 -0.0625
vertex 0.7247204418453816 0.0833355349529402 0.0625
vertex 0.7247204418453813 0.08333553495294066 -0.0625
endloop
endfacet
facet normal -0.9569403357322088 -0.2902846772544627 0
outer loop
vertex 0.7471177920604843 0.02926354830242006 -0.0625
vertex 0.7471177920604846 0.029263548302418996 0.0625
vertex 0.7385819298766931 0.05740251485476347 0.0625
endloop
endfacet
facet normal -0.9569403357322088 -0.2902846772544627 0
outer loop
vertex 0.7471177920604843 0.02926354830242006 -0.0625
vertex 0.7385819298766931 0.05740251485476347 0.0625
vertex 0.7385819298766935 0.05740251485476283 -0.0625
endloop
endfacet
facet normal -0.9951847266721968 -0.09801714032956155 0
outer loop
vertex 0.75 1.942890293094024e-16 -0.0625
vertex 0.75 2.220446049250313e-16 0.0625
vertex 0.7471177920604846 0.029263548302418996 0.0625
endloop
endfacet
facet normal -0.9951847266721968 -0.09801714032956155 0
outer loop
vertex 0.75 1.942890293094024e-16 -0.0625
vertex 0.7471177920604846 0.029263548302418996 0.0625
vertex 0.7471177920604843 0.02926354830242006 -0.0625
endloop
endfacet
endsolid csg.js
